<svg xmlns="http://www.w3.org/2000/svg" width="68" height="68" viewBox="0 0 68 68">
    <g fill="none" fill-rule="evenodd">
        <ellipse cx="34" cy="34" fill="#CDDC39" rx="34" ry="34"/>
        <path fill="#FFF" d="M52.122 46.767c0 2.111-.64 3.777-1.92 5-1.282 1.222-2.984 1.833-5.107 1.833H22.091c-2.123 0-3.825-.611-5.106-1.833-1.281-1.223-1.921-2.889-1.921-5 0-.932.03-1.842.092-2.73.061-.888.184-1.847.368-2.875.184-1.03.417-1.983.698-2.863.28-.88.658-1.737 1.131-2.572a9.273 9.273 0 0 1 1.632-2.137c.614-.589 1.365-1.06 2.25-1.411.887-.352 1.865-.528 2.935-.528.176 0 .553.19 1.132.567.58.379 1.22.8 1.922 1.267.701.466 1.64.888 2.816 1.266 1.175.378 2.36.567 3.553.567s2.378-.189 3.553-.567c1.176-.378 2.115-.8 2.817-1.266.701-.466 1.342-.888 1.92-1.267.58-.378.957-.567 1.133-.567 1.07 0 2.048.176 2.934.528.886.352 1.637.822 2.25 1.411a9.273 9.273 0 0 1 1.633 2.137c.473.835.85 1.693 1.131 2.572.281.88.514 1.834.698 2.863.184 1.028.307 1.987.368 2.875.062.888.092 1.798.092 2.73zM43.7 23.21c0 2.797-.987 5.184-2.961 7.163-1.974 1.978-4.356 2.968-7.146 2.968s-5.172-.99-7.146-2.968c-1.974-1.979-2.961-4.366-2.961-7.163 0-2.796.987-5.183 2.961-7.162 1.974-1.979 4.356-2.968 7.146-2.968s5.172.99 7.146 2.968c1.974 1.979 2.961 4.366 2.961 7.162z"/>
    </g>
</svg>
