<svg xmlns="http://www.w3.org/2000/svg" width="68" height="68" viewBox="0 0 68 68">
    <g fill="none" fill-rule="evenodd">
        <circle cx="34" cy="34" r="34" fill="#F44336"/>
        <path fill="#FFF" d="M25.59 33.58c-2.475.077-4.5 1.057-6.073 2.94h-3.071c-1.253 0-2.307-.31-3.163-.93C12.428 34.97 12 34.063 12 32.87c0-5.406.947-8.109 2.842-8.109.091 0 .424.161.997.483.572.321 1.317.647 2.234.976.917.33 1.826.494 2.727.494 1.024 0 2.04-.176 3.048-.529a11.477 11.477 0 0 0-.115 1.516c0 2.129.62 4.089 1.857 5.88zm24.543 14.632c0 1.838-.557 3.289-1.673 4.353-1.115 1.064-2.597 1.596-4.445 1.596h-20.03c-1.848 0-3.33-.532-4.445-1.596-1.116-1.064-1.673-2.515-1.673-4.353 0-.811.026-1.604.08-2.377.053-.773.16-1.608.32-2.504.161-.896.364-1.726.608-2.492s.573-1.512.985-2.24a8.074 8.074 0 0 1 1.421-1.86c.535-.513 1.188-.923 1.96-1.229.771-.306 1.623-.46 2.555-.46.153 0 .481.165.985.495.504.329 1.062.696 1.673 1.102.611.406 1.429.773 2.452 1.103a10.05 10.05 0 0 0 3.094.493c1.039 0 2.07-.164 3.094-.493 1.023-.33 1.84-.697 2.452-1.103.61-.406 1.169-.773 1.673-1.102.504-.33.832-.494.985-.494.932 0 1.784.153 2.555.46.772.305 1.425.715 1.96 1.228a8.074 8.074 0 0 1 1.42 1.86c.413.728.742 1.474.986 2.24.244.766.447 1.596.607 2.492.16.896.268 1.73.321 2.504.054.773.08 1.566.08 2.377zM26.667 18.88c0 1.623-.573 3.01-1.72 4.158-1.145 1.148-2.528 1.722-4.147 1.722-1.62 0-3.002-.574-4.148-1.722-1.146-1.149-1.719-2.535-1.719-4.158 0-1.623.573-3.009 1.72-4.157C17.797 13.574 19.18 13 20.8 13c1.62 0 3.002.574 4.148 1.723 1.146 1.148 1.719 2.534 1.719 4.157zM42.8 27.7c0 2.435-.86 4.514-2.578 6.237-1.719 1.722-3.793 2.584-6.222 2.584-2.43 0-4.503-.862-6.222-2.584C26.06 32.214 25.2 30.135 25.2 27.7c0-2.434.86-4.513 2.578-6.236 1.719-1.722 3.793-2.584 6.222-2.584 2.43 0 4.503.862 6.222 2.584C41.94 23.187 42.8 25.266 42.8 27.7zM56 32.87c0 1.194-.428 2.101-1.283 2.721-.856.62-1.91.93-3.163.93h-3.07c-1.574-1.883-3.599-2.863-6.074-2.94 1.238-1.791 1.857-3.751 1.857-5.88 0-.444-.039-.949-.115-1.516a9.187 9.187 0 0 0 3.048.529c.901 0 1.81-.165 2.727-.494.917-.33 1.662-.655 2.234-.976.573-.322.906-.483.997-.483 1.895 0 2.842 2.703 2.842 8.109zM53.067 18.88c0 1.623-.573 3.01-1.72 4.158-1.145 1.148-2.528 1.722-4.147 1.722-1.62 0-3.002-.574-4.148-1.722-1.146-1.149-1.719-2.535-1.719-4.158 0-1.623.573-3.009 1.72-4.157C44.197 13.574 45.58 13 47.2 13c1.62 0 3.002.574 4.148 1.723 1.146 1.148 1.719 2.534 1.719 4.157z"/>
    </g>
</svg>
