<?xml version="1.0" encoding="UTF-8"?>
<svg width="150px" height="150px" viewBox="0 0 150 150" version="1.1" xmlns="http://www.w3.org/2000/svg" xmlns:xlink="http://www.w3.org/1999/xlink">
    <!-- Generator: Sketch 42 (36781) - http://www.bohemiancoding.com/sketch -->
    <title>Artboard</title>
    <desc>Created with Sketch.</desc>
    <defs></defs>
    <g id="Page-1" stroke="none" stroke-width="1" fill="none" fill-rule="evenodd">
        <g id="Artboard" fill="#FFFFFF">
            <path d="M33.737,90.557 C34.565,90.176 36.426,89.343 37.264,88.927 C38.219,88.458 38.09,88.033 37.803,87.244 C36.553,83.433 35.92,79.378 35.92,75.167 C35.92,53.567 53.471,35.976 75.09,35.976 C96.655,35.976 114.241,53.567 114.241,75.167 C114.241,80.711 113.071,86.002 110.996,90.786 C110.84,91.122 110.815,91.788 111.383,92.066 C112.004,92.337 114.389,93.4 115.08,93.679 C115.778,93.968 116.219,93.791 116.573,93.054 C118.942,87.566 120.258,81.516 120.258,75.167 C120.258,50.231 99.996,29.95 75.09,29.95 C50.158,29.95 29.908,50.231 29.908,75.167 C29.908,80.288 30.756,85.197 32.34,89.781 C32.571,90.492 32.938,90.922 33.737,90.557" id="Fill-3"></path>
            <path d="M22.26,95.868 C23.215,95.41 26.432,93.941 27.276,93.52 C28.153,93.132 27.948,92.411 27.823,92.053 C25.916,86.772 24.908,81.119 24.908,75.182 C24.908,47.476 47.408,24.97 75.11,24.97 C102.746,24.97 125.264,47.476 125.264,75.182 C125.264,82.286 123.783,89.021 121.117,95.146 C120.963,95.465 120.739,96.205 121.539,96.532 C122.35,96.862 125.951,98.483 126.627,98.778 C127.342,99.073 127.783,98.955 128.123,98.127 C131.223,91.122 132.893,83.338 132.893,75.182 C132.893,43.275 106.969,17.318 75.11,17.318 C43.188,17.318 17.278,43.275 17.278,75.182 C17.278,82.214 18.537,88.927 20.848,95.191 C20.987,95.569 21.291,96.316 22.26,95.868" id="Fill-4"></path>
            <path d="M6.649,103.057 C7.766,102.512 14.588,99.367 15.772,98.841 C16.969,98.306 16.449,97.374 16.276,96.888 C13.762,90.098 12.389,82.802 12.389,75.167 C12.389,40.555 40.5,12.426 75.09,12.426 C109.643,12.426 137.766,40.555 137.766,75.167 C137.766,83.924 135.961,92.253 132.717,99.839 C132.506,100.296 132.274,101.232 133.41,101.719 C134.53,102.204 141.131,105.12 142.039,105.49 C142.932,105.933 143.608,105.836 144.217,104.488 C148.043,95.465 150.145,85.553 150.145,75.167 C150.145,33.741 116.471,0 75.09,0 C33.67,0 0,33.741 0,75.167 C0,84.692 1.799,93.809 5.026,102.186 C5.219,102.652 5.535,103.575 6.649,103.057" id="Fill-5"></path>
            <path d="M75.117,58.853 C79.537,58.853 83.168,55.261 83.168,50.818 C83.168,46.338 79.537,42.744 75.117,42.744 C70.647,42.744 67.086,46.338 67.086,50.818 C67.086,55.261 70.647,58.853 75.117,58.853" id="Fill-6"></path>
            <path d="M78.063,101.011 C79.627,101.011 80.901,99.73 80.901,98.164 L80.901,80.511 C80.969,78.288 82.553,75.41 84.112,73.734 L100.733,57.129 C101.862,55.996 101.862,54.17 100.733,53.08 L97.707,50.05 C96.594,48.921 94.776,48.921 93.672,50.05 L78.668,65.089 C77.664,66.048 76.985,66.664 75.117,66.664 C73.254,66.664 72.547,66.048 71.578,65.089 L56.549,50.05 C55.416,48.921 53.635,48.921 52.516,50.05 L49.496,53.08 C48.383,54.17 48.383,55.996 49.496,57.129 L66.114,73.734 C67.686,75.41 69.25,78.288 69.317,80.511 L69.317,98.164 C69.317,99.73 70.59,101.011 72.164,101.011 L78.063,101.011" id="Fill-7"></path>
            <path d="M130.487,107.248 C127.66,108.281 122.42,113.465 120.024,115.571 L119.389,115.691 C120.225,114.748 123.846,110.161 124.797,108.586 C127.66,103.844 122.258,99.357 116.305,102.778 C114.065,104.06 110.303,108.037 108.475,109.45 L107.885,109.586 C108.701,108.797 112.049,104.38 112.975,102.977 C115.561,99.117 110.108,95.483 105.418,98.306 C102.106,100.3 99.379,103.034 96.594,105.19 L96.116,105.312 C96.885,104.579 98.729,102.387 99.444,101.604 C102.215,98.514 98.242,94.924 94.067,97.084 C90.071,99.142 84.264,104.893 77.965,108.946 C80.897,110.538 86.061,110.758 94.237,114.254 C102.424,117.756 105.049,125.908 99.727,132.344 C94.776,138.3 87.258,136.276 80.774,134.276 C73.254,131.935 70.608,129.482 61.541,126.339 C55.629,124.282 53.215,124.332 53.323,122.61 C53.434,120.682 58.524,121.843 63.307,123.579 C76.574,128.378 94.205,139.316 98.522,127.54 C101.938,118.25 86.651,114.237 80.815,113.116 C72.649,111.555 67.037,105.577 59.961,101.769 C49.311,96.01 41.096,95.868 35.004,96.975 C28.455,98.154 19.108,103.508 13.448,106.894 C9.53,109.209 9.805,112.745 13.655,118.233 C27.246,137.562 49.684,150.195 75.082,150.195 C102.032,150.195 125.662,135.908 138.901,114.593 C141.824,109.884 137.209,104.846 130.487,107.248" id="Fill-8"></path>
        </g>
    </g>
</svg>